<svg id="visual" viewBox="0 0 900 450" width="900" height="450" xmlns="http://www.w3.org/2000/svg" xmlns:xlink="http://www.w3.org/1999/xlink" version="1.1"><path d="M0 177L13.7 163.5C27.3 150 54.7 123 82 114C109.3 105 136.7 114 163.8 114.7C191 115.3 218 107.7 245.2 104.7C272.3 101.7 299.7 103.3 327 125.2C354.3 147 381.7 189 409 192C436.3 195 463.7 159 491 132.7C518.3 106.3 545.7 89.7 573 92.7C600.3 95.7 627.7 118.3 654.8 127.3C682 136.3 709 131.7 736.2 137.7C763.3 143.7 790.7 160.3 818 155.8C845.3 151.3 872.7 125.7 886.3 112.8L900 100L900 0L886.3 0C872.7 0 845.3 0 818 0C790.7 0 763.3 0 736.2 0C709 0 682 0 654.8 0C627.7 0 600.3 0 573 0C545.7 0 518.3 0 491 0C463.7 0 436.3 0 409 0C381.7 0 354.3 0 327 0C299.7 0 272.3 0 245.2 0C218 0 191 0 163.8 0C136.7 0 109.3 0 82 0C54.7 0 27.3 0 13.7 0L0 0Z" fill="#92fb92"></path><path d="M0 226L13.7 211C27.3 196 54.7 166 82 161.5C109.3 157 136.7 178 163.8 190.8C191 203.7 218 208.3 245.2 206.2C272.3 204 299.7 195 327 205.5C354.3 216 381.7 246 409 243.7C436.3 241.3 463.7 206.7 491 187.8C518.3 169 545.7 166 573 181.8C600.3 197.7 627.7 232.3 654.8 233.2C682 234 709 201 736.2 200.2C763.3 199.3 790.7 230.7 818 232.2C845.3 233.7 872.7 205.3 886.3 191.2L900 177L900 98L886.3 110.8C872.7 123.7 845.3 149.3 818 153.8C790.7 158.3 763.3 141.7 736.2 135.7C709 129.7 682 134.3 654.8 125.3C627.7 116.3 600.3 93.7 573 90.7C545.7 87.7 518.3 104.3 491 130.7C463.7 157 436.3 193 409 190C381.7 187 354.3 145 327 123.2C299.7 101.3 272.3 99.7 245.2 102.7C218 105.7 191 113.3 163.8 112.7C136.7 112 109.3 103 82 112C54.7 121 27.3 148 13.7 161.5L0 175Z" fill="#79eb7a"></path><path d="M0 361L13.7 353.5C27.3 346 54.7 331 82 322.8C109.3 314.7 136.7 313.3 163.8 315.7C191 318 218 324 245.2 328.5C272.3 333 299.7 336 327 342C354.3 348 381.7 357 409 360.7C436.3 364.3 463.7 362.7 491 350.7C518.3 338.7 545.7 316.3 573 321.7C600.3 327 627.7 360 654.8 370.5C682 381 709 369 736.2 359.2C763.3 349.3 790.7 341.7 818 336.3C845.3 331 872.7 328 886.3 326.5L900 325L900 175L886.3 189.2C872.7 203.3 845.3 231.7 818 230.2C790.7 228.7 763.3 197.3 736.2 198.2C709 199 682 232 654.8 231.2C627.7 230.3 600.3 195.7 573 179.8C545.7 164 518.3 167 491 185.8C463.7 204.7 436.3 239.3 409 241.7C381.7 244 354.3 214 327 203.5C299.7 193 272.3 202 245.2 204.2C218 206.3 191 201.7 163.8 188.8C136.7 176 109.3 155 82 159.5C54.7 164 27.3 194 13.7 209L0 224Z" fill="#5fdc62"></path><path d="M0 388L13.7 383.5C27.3 379 54.7 370 82 364.8C109.3 359.7 136.7 358.3 163.8 362.8C191 367.3 218 377.7 245.2 382.8C272.3 388 299.7 388 327 391.8C354.3 395.7 381.7 403.3 409 404.2C436.3 405 463.7 399 491 390.7C518.3 382.3 545.7 371.7 573 376.2C600.3 380.7 627.7 400.3 654.8 410.2C682 420 709 420 736.2 415.5C763.3 411 790.7 402 818 397.5C845.3 393 872.7 393 886.3 393L900 393L900 323L886.3 324.5C872.7 326 845.3 329 818 334.3C790.7 339.7 763.3 347.3 736.2 357.2C709 367 682 379 654.8 368.5C627.7 358 600.3 325 573 319.7C545.7 314.3 518.3 336.7 491 348.7C463.7 360.7 436.3 362.3 409 358.7C381.7 355 354.3 346 327 340C299.7 334 272.3 331 245.2 326.5C218 322 191 316 163.8 313.7C136.7 311.3 109.3 312.7 82 320.8C54.7 329 27.3 344 13.7 351.5L0 359Z" fill="#41cc49"></path><path d="M0 451L13.7 451C27.3 451 54.7 451 82 451C109.3 451 136.7 451 163.8 451C191 451 218 451 245.2 451C272.3 451 299.7 451 327 451C354.3 451 381.7 451 409 451C436.3 451 463.7 451 491 451C518.3 451 545.7 451 573 451C600.3 451 627.7 451 654.8 451C682 451 709 451 736.2 451C763.3 451 790.7 451 818 451C845.3 451 872.7 451 886.3 451L900 451L900 391L886.3 391C872.7 391 845.3 391 818 395.5C790.7 400 763.3 409 736.2 413.5C709 418 682 418 654.8 408.2C627.7 398.3 600.3 378.7 573 374.2C545.7 369.7 518.3 380.3 491 388.7C463.7 397 436.3 403 409 402.2C381.7 401.3 354.3 393.7 327 389.8C299.7 386 272.3 386 245.2 380.8C218 375.7 191 365.3 163.8 360.8C136.7 356.3 109.3 357.7 82 362.8C54.7 368 27.3 377 13.7 381.5L0 386Z" fill="#10bd2d"></path></svg>